<svg version="1.2" xmlns="http://www.w3.org/2000/svg" viewBox="0 0 1036 218" width="1036" height="218"><style>tspan{white-space:pre}.a{fill:#e74324}.b{font-size: 198px;fill: #e74324;font-weight: 700;font-family: "DejaVuSans-Bold", "DejaVu Sans"}</style><path class="a" d="m179.7 75.2v-3.5c0-9.4-1.9-18.7-5.5-27.4-3.6-8.7-8.8-16.6-15.5-23.3-6.7-6.7-14.6-11.9-23.3-15.5-8.7-3.6-18-5.5-27.4-5.5h-94c-1.8 0-3.7 0.4-5.4 1.1-1.7 0.7-3.2 1.7-4.5 3-1.3 1.3-2.3 2.8-3 4.5-0.7 1.7-1.1 3.6-1.1 5.4v187.1c0 1.8 0.4 3.6 1.1 5.3 0.7 1.7 1.7 3.2 3 4.5 1.3 1.3 2.8 2.4 4.5 3.1 1.7 0.7 3.6 1.1 5.4 1.1h141.3c39.8 0 73.5-31.4 73.8-71.2 0.1-7.5-1-15-3.3-22.3-2.3-7.2-5.7-14-10.2-20.1-4.4-6.1-9.7-11.5-15.8-16-6.1-4.5-12.9-7.9-20.1-10.3z"/><text style="transform:matrix(1,0,0,1,313,181)" ><tspan x="0" y="0" class="b">C</tspan><tspan  y="0" class="b">4</tspan><tspan  y="0" class="b">U
</tspan></text></svg>